{
    "asset" : {
        "generator" : "Khronos glTF Blender I/O v1.5.17",
        "version" : "2.0"
    },
    "scene" : 0,
    "scenes" : [
        {
            "name" : "Scene",
            "nodes" : [
                0,
                1,
                2
            ]
        }
    ],
    "nodes" : [
        {
            "name" : "Spot",
            "rotation" : [
                0.0914345532655716,
                -0.27433767914772034,
                0.32975953817367554,
                0.898686408996582
            ],
            "translation" : [
                -1.4878439903259277,
                1.8673269748687744,
                -0.10884398221969604
            ]
        },
        {
            "name" : "Camera",
            "translation" : [
                -0.01787801831960678,
                0.7777063846588135,
                -0.023699790239334106
            ]
        },
        {
            "mesh" : 0,
            "name" : "Curve.001",
            "rotation" : [
                0.0022738631814718246,
                0.11102242022752762,
                0.0005626908387057483,
                0.9938151240348816
            ],
            "translation" : [
                0,
                -0.0011232644319534302,
                0
            ]
        }
    ],
    "animations" : [
        {
            "channels" : [
                {
                    "sampler" : 0,
                    "target" : {
                        "node" : 1,
                        "path" : "translation"
                    }
                },
                {
                    "sampler" : 1,
                    "target" : {
                        "node" : 1,
                        "path" : "rotation"
                    }
                },
                {
                    "sampler" : 2,
                    "target" : {
                        "node" : 1,
                        "path" : "scale"
                    }
                }
            ],
            "name" : "CameraAction",
            "samplers" : [
                {
                    "input" : 12,
                    "interpolation" : "STEP",
                    "output" : 13
                },
                {
                    "input" : 12,
                    "interpolation" : "STEP",
                    "output" : 14
                },
                {
                    "input" : 12,
                    "interpolation" : "STEP",
                    "output" : 15
                }
            ]
        }
    ],
    "materials" : [
        {
            "doubleSided" : true,
            "name" : "Material.001",
            "pbrMetallicRoughness" : {
                "baseColorFactor" : [
                    0.0036764442920684814,
                    0.1620294451713562,
                    0.5394796133041382,
                    1
                ]
            }
        },
        {
            "doubleSided" : true,
            "name" : "SVGMat",
            "pbrMetallicRoughness" : {
                "baseColorFactor" : [
                    0.5583406090736389,
                    0.5583404898643494,
                    0.5583405494689941,
                    1
                ]
            }
        },
        {
            "doubleSided" : true,
            "name" : "Material.004",
            "pbrMetallicRoughness" : {
                "baseColorFactor" : [
                    1,
                    0.41788506507873535,
                    0.00030355900526046753,
                    1
                ]
            }
        }
    ],
    "meshes" : [
        {
            "name" : "Curve.001",
            "primitives" : [
                {
                    "attributes" : {
                        "POSITION" : 0,
                        "NORMAL" : 1,
                        "TEXCOORD_0" : 2
                    },
                    "indices" : 3,
                    "material" : 0
                },
                {
                    "attributes" : {
                        "POSITION" : 4,
                        "NORMAL" : 5,
                        "TEXCOORD_0" : 6
                    },
                    "indices" : 7,
                    "material" : 1
                },
                {
                    "attributes" : {
                        "POSITION" : 8,
                        "NORMAL" : 9,
                        "TEXCOORD_0" : 10
                    },
                    "indices" : 11,
                    "material" : 2
                }
            ]
        }
    ],
    "accessors" : [
        {
            "bufferView" : 0,
            "componentType" : 5126,
            "count" : 1496,
            "max" : [
                -0.010299518704414368,
                0.017617933452129364,
                0.11500275135040283
            ],
            "min" : [
                -0.11130044609308243,
                -0.018412083387374878,
                -0.08397391438484192
            ],
            "type" : "VEC3"
        },
        {
            "bufferView" : 1,
            "componentType" : 5126,
            "count" : 1496,
            "type" : "VEC3"
        },
        {
            "bufferView" : 2,
            "componentType" : 5126,
            "count" : 1496,
            "type" : "VEC2"
        },
        {
            "bufferView" : 3,
            "componentType" : 5123,
            "count" : 2004,
            "type" : "SCALAR"
        },
        {
            "bufferView" : 4,
            "componentType" : 5126,
            "count" : 2982,
            "max" : [
                0.1072440966963768,
                0.017617948353290558,
                0.06802457571029663
            ],
            "min" : [
                -0.048721544444561005,
                -0.01841207966208458,
                -0.10347199440002441
            ],
            "type" : "VEC3"
        },
        {
            "bufferView" : 5,
            "componentType" : 5126,
            "count" : 2982,
            "type" : "VEC3"
        },
        {
            "bufferView" : 6,
            "componentType" : 5126,
            "count" : 2982,
            "type" : "VEC2"
        },
        {
            "bufferView" : 7,
            "componentType" : 5123,
            "count" : 3876,
            "type" : "SCALAR"
        },
        {
            "bufferView" : 8,
            "componentType" : 5126,
            "count" : 2726,
            "max" : [
                0.10727647691965103,
                0.017617948353290558,
                0.11498142778873444
            ],
            "min" : [
                0.00670817494392395,
                -0.01841207593679428,
                0.014423123560845852
            ],
            "type" : "VEC3"
        },
        {
            "bufferView" : 9,
            "componentType" : 5126,
            "count" : 2726,
            "type" : "VEC3"
        },
        {
            "bufferView" : 10,
            "componentType" : 5126,
            "count" : 2726,
            "type" : "VEC2"
        },
        {
            "bufferView" : 11,
            "componentType" : 5123,
            "count" : 3864,
            "type" : "SCALAR"
        },
        {
            "bufferView" : 12,
            "componentType" : 5126,
            "count" : 1,
            "max" : [
                0.9583333333333334
            ],
            "min" : [
                0.9583333333333334
            ],
            "type" : "SCALAR"
        },
        {
            "bufferView" : 13,
            "componentType" : 5126,
            "count" : 1,
            "type" : "VEC3"
        },
        {
            "bufferView" : 14,
            "componentType" : 5126,
            "count" : 1,
            "type" : "VEC4"
        },
        {
            "bufferView" : 15,
            "componentType" : 5126,
            "count" : 1,
            "type" : "VEC3"
        }
    ],
    "bufferViews" : [
        {
            "buffer" : 0,
            "byteLength" : 17952,
            "byteOffset" : 0
        },
        {
            "buffer" : 0,
            "byteLength" : 17952,
            "byteOffset" : 17952
        },
        {
            "buffer" : 0,
            "byteLength" : 11968,
            "byteOffset" : 35904
        },
        {
            "buffer" : 0,
            "byteLength" : 4008,
            "byteOffset" : 47872
        },
        {
            "buffer" : 0,
            "byteLength" : 35784,
            "byteOffset" : 51880
        },
        {
            "buffer" : 0,
            "byteLength" : 35784,
            "byteOffset" : 87664
        },
        {
            "buffer" : 0,
            "byteLength" : 23856,
            "byteOffset" : 123448
        },
        {
            "buffer" : 0,
            "byteLength" : 7752,
            "byteOffset" : 147304
        },
        {
            "buffer" : 0,
            "byteLength" : 32712,
            "byteOffset" : 155056
        },
        {
            "buffer" : 0,
            "byteLength" : 32712,
            "byteOffset" : 187768
        },
        {
            "buffer" : 0,
            "byteLength" : 21808,
            "byteOffset" : 220480
        },
        {
            "buffer" : 0,
            "byteLength" : 7728,
            "byteOffset" : 242288
        },
        {
            "buffer" : 0,
            "byteLength" : 4,
            "byteOffset" : 250016
        },
        {
            "buffer" : 0,
            "byteLength" : 12,
            "byteOffset" : 250020
        },
        {
            "buffer" : 0,
            "byteLength" : 16,
            "byteOffset" : 250032
        },
        {
            "buffer" : 0,
            "byteLength" : 12,
            "byteOffset" : 250048
        }
    ],
    "buffers" : [
        {
            "byteLength" : 250060,
            "uri" : "data:application/octet-stream;base64,"
        }
    ]
}
